<?xml version="1.0" standalone="no"?>
<!DOCTYPE svg PUBLIC "-//W3C//DTD SVG 20010904//EN"
 "http://www.w3.org/TR/2001/REC-SVG-20010904/DTD/svg10.dtd">
<svg version="1.0" xmlns="http://www.w3.org/2000/svg"
 width="1080.000000pt" height="1080.000000pt" viewBox="0 0 1080.000000 1080.000000"
 preserveAspectRatio="xMidYMid meet">
<metadata>
Created by potrace 1.11, written by Peter Selinger 2001-2013
</metadata>
<g transform="translate(0.000000,1080.000000) scale(0.100000,-0.100000)"
fill="#000000" stroke="none">
<path d="M1530 10789 c-799 -77 -1443 -727 -1520 -1535 -14 -152 -14 -7556 0
-7708 30 -318 160 -646 347 -883 l18 -23 4893 4893 4893 4893 -78 56 c-245
175 -520 277 -832 308 -125 12 -7591 12 -7721 -1z m1761 -955 c321 -55 625
-226 845 -476 107 -121 208 -285 258 -419 17 -44 20 -47 63 -53 25 -3 74 -6
108 -6 83 0 222 -25 320 -57 168 -55 313 -143 449 -273 252 -241 376 -529 376
-875 0 -335 -114 -618 -344 -853 -206 -212 -466 -334 -768 -362 -102 -10 -127
-9 -174 5 -129 37 -206 189 -160 316 38 107 114 152 291 173 228 28 378 107
507 268 105 131 152 272 151 458 0 107 -4 136 -26 205 -37 112 -90 198 -177
286 -118 119 -249 186 -412 209 -97 14 -158 7 -372 -47 -124 -31 -181 -41
-186 -33 -3 6 -17 70 -29 143 -32 185 -54 265 -100 363 -125 265 -362 457
-659 531 -104 26 -322 23 -432 -6 -299 -80 -541 -282 -657 -551 -59 -136 -76
-219 -76 -370 0 -117 4 -159 36 -316 20 -99 37 -183 37 -187 0 -4 -94 -7 -209
-7 -234 0 -287 -10 -381 -70 -104 -67 -188 -197 -210 -328 -29 -171 59 -371
206 -473 65 -44 136 -68 242 -80 116 -13 174 -38 219 -97 108 -141 43 -339
-126 -389 -110 -32 -321 6 -486 86 -451 220 -661 721 -501 1194 50 146 113
244 236 367 115 115 186 162 338 225 104 43 98 33 107 169 24 368 208 743 483
983 220 191 470 305 782 356 70 12 343 6 431 -9z m-30 -2845 c-95 -221 -169
-405 -164 -409 4 -5 163 -84 353 -175 190 -91 348 -170 352 -173 6 -6 -971
-897 -1047 -955 -13 -10 -26 -14 -28 -10 -3 5 73 191 168 413 96 223 171 408
167 412 -4 4 -164 83 -355 175 -191 92 -349 173 -350 178 -3 16 1057 965 1067
955 5 -5 -60 -170 -163 -411z"/>
<path d="M5531 5266 l-4893 -4893 113 -76 c248 -165 503 -257 798 -287 144
-14 7558 -14 7702 1 296 30 549 120 799 286 159 106 347 294 453 453 202 304
297 627 297 1007 l0 104 -402 -3 c-515 -5 -488 2 -822 -221 -456 -304 -1068
-704 -1131 -738 -91 -49 -229 -95 -330 -109 -56 -8 -389 -10 -1110 -8 l-1030
3 -40 22 c-92 49 -135 123 -135 230 0 82 21 132 76 185 81 77 33 72 854 79
804 7 780 5 915 68 61 28 436 268 817 523 221 147 282 204 307 289 21 69 -19
151 -94 194 -55 31 -91 38 -134 24 -20 -7 -292 -177 -606 -379 -313 -202 -590
-378 -615 -391 -35 -18 -60 -23 -115 -23 -109 1 -184 49 -231 149 -49 105 -23
223 68 312 73 70 1457 1103 1511 1129 29 13 84 31 122 41 65 17 142 18 1097
18 l1028 0 0 2946 c0 1984 -3 2981 -10 3050 -30 294 -122 550 -286 797 -41 61
-76 112 -77 112 -1 0 -2204 -2202 -4896 -4894z m2356 -287 c208 -63 373 -245
419 -461 35 -162 2 -313 -126 -573 -195 -397 -519 -761 -961 -1076 -53 -38
-107 -69 -119 -69 -43 0 -342 229 -529 406 -218 206 -428 489 -559 756 -109
222 -126 278 -126 423 0 104 4 130 28 200 38 109 83 181 165 258 115 108 242
157 408 157 120 0 180 -13 282 -62 154 -73 276 -226 314 -393 l14 -60 17 60
c60 209 190 352 382 422 132 47 261 51 391 12z"/>
</g>
</svg>
